# xmcd
#
# Track frame offsets: 
#        150
#        16657
#        31914
#        47591
#        62476
#        75203
#        91740
#        109470
#        125853
#
# Disc length: 1937 seconds
#
# Revision: 0
# Processed by: cddbd v1.5.2PL0 Copyright (c) Steve Scherf et al.
# Submitted via: ExactAudioCopyFreeDBPlugin 1.0
#
DISCID=62078f09
DTITLE=Charles Esten - #EverySingleFriday - The 2nd Nine
DYEAR=2017
DGENRE=Country
TTITLE0=Already Gone Away
TTITLE1=I Know Better Now
TTITLE2=When It's True
TTITLE3=Make Up Your Mind
TTITLE4=He Ain't Me
TTITLE5=Don't Cry Long
TTITLE6=Never Know Why
TTITLE7=Let's Do This Thing
TTITLE8=Scars
EXTD=
EXTT0=
EXTT1=
EXTT2=
EXTT3=
EXTT4=
EXTT5=
EXTT6=
EXTT7=
EXTT8=
PLAYORDER=
